# xmcd
#
# Track frame offsets:
#	150
#	14034
#	30061
#	54370
#	82583
#	101916
#	120863
#	139982
#
# Disc length: 2135 seconds
#
# Revision: 1
# Processed by: cddbd v1.5.2PL0 Copyright (c) Steve Scherf et al.
# Submitted via: audiograbber 1.83.01
#
DISCID=55085508
DTITLE=Golden Earring - Complete Studio Recordings [CD 10) - Switch [remastered
DTITLE=2017]
DYEAR=1975
DGENRE=Rock
TTITLE0=Intro: Plus Minus Absurdio
TTITLE1=Love Is A Rodeo
TTITLE2=The Switch
TTITLE3=Kill Me (Ce Soir)
TTITLE4=Tons Of Time
TTITLE5=Daddy's Gonna Save My Soul
TTITLE6=Troubles And Hassles
TTITLE7=Lonesome D.J.
EXTD=
EXTT0=
EXTT1=
EXTT2=
EXTT3=
EXTT4=
EXTT5=
EXTT6=
EXTT7=
PLAYORDER=
